PathFileType	4	(X/Y/Z)	Patient4_TMGait_0pt4_03_left_03.trc.trc
DataRate	CameraRate	NumFrames	NumMarkers	Units	OrigDataRate	OrigDataStartFrame	OrigNumFrames
74.866310160428	74.866310160428	5	33	mm	74.866310160428	53	       141
Frame#	Time	Sacral			L.Shoulder			Chest			R.Shoulder			Neck			R.ASIS			L.ASIS			R.Thigh.Superior			R.Thigh.Lateral			R.Thigh.Inferior			R.Patella			L.Thigh.Superior			L.Thigh.Lateral			L.Thigh.Inferior			L.Patella			L.Shank.Superior			L.Shank.Lateral			L.Shank.Inferior			R.Shank.Superior			R.Shank.Lateral			R.Shank.Inferior			R.Heel			R.Midfoot.Superior			R.Midfoot.Lateral			R.Toe			L.Heel			L.Midfoot.Lateral			L.Midfoot.Superior			L.Toe			L.Elbow			L.Wrist			R.Elbow			R.Wrist			
		X1	Y1	Z1	X2	Y2	Z2	X3	Y3	Z3	X4	Y4	Z4	X5	Y5	Z5	X6	Y6	Z6	X7	Y7	Z7	X8	Y8	Z8	X9	Y9	Z9	X10	Y10	Z10	X11	Y11	Z11	X12	Y12	Z12	X13	Y13	Z13	X14	Y14	Z14	X15	Y15	Z15	X16	Y16	Z16	X17	Y17	Z17	X18	Y18	Z18	X19	Y19	Z19	X20	Y20	Z20	X21	Y21	Z21	X22	Y22	Z22	X23	Y23	Z23	X24	Y24	Z24	X25	Y25	Z25	X26	Y26	Z26	X27	Y27	Z27	X28	Y28	Z28	X29	Y29	Z29	X30	Y30	Z30	X31	Y31	Z31	X32	Y32	Z32	X33	Y33	Z33	

53	4.164571428571	795.693445449693	1007.015376060568	421.259915477420	984.715386867060	1440.447863060139	243.844927745922	1072.326197731700	1374.806831868229	415.436536365436	968.069672378255	1443.820409233809	580.418912571994	948.976610793802	1501.633558696980	399.888926893172	1018.971064434946	955.977873874573	554.892219164201	1021.212497855294	966.864882013830	279.549458501493	1102.101925927194	778.925120418014	535.354001645901	1055.000466454472	659.939326306049	610.280846952004	1148.886619690227	615.962643883584	539.129997087906	1163.157584244357	504.376620231964	566.774084166804	1064.524219695881	750.933478060089	303.982923621495	970.629880075367	636.581891087804	245.737227280483	1055.054896897483	557.682107330034	305.721564658247	1053.878204299001	488.664957518414	316.065646813634	1025.133727208579	416.298528546458	309.484752757657	931.245971106747	303.769103264591	261.121637850706	980.613127381965	191.601728667555	332.166685346556	1085.873889223831	431.296819598312	574.501691894553	962.667404509641	396.812157225926	634.380101336116	947.159992679729	285.870219221337	589.845431454667	748.038459747041	233.925552816368	562.642475203741	909.609997902904	158.935999051545	601.934619947781	800.012902553576	165.296602872704	633.324481038025	965.465682919551	39.697157126653	623.710830521436	852.252071183023	39.158300622217	383.556374598529	920.379116045449	34.804187880735	297.819354001716	1005.510864097495	95.621598590512	320.020661760366	1132.337346318984	41.832831365979	283.003603963744	1064.441861449648	1118.300205216467	85.637395435816	1294.810598394539	990.780484028929	84.560156660178	882.655288796804	1101.183766378963	682.897069718312	915.173096263690	840.573704164928	687.518025421316	
54	4.177928571429	794.808776511865	1007.960667767051	419.489332939602	986.032046605429	1441.227530576858	242.765285576685	1072.038612505309	1375.394813139797	415.055609127183	966.554409972344	1444.755275302072	579.062861754756	949.011655370289	1502.327114414506	398.679770462193	1017.465507530278	957.273638157374	554.069627885420	1020.900404944822	967.303282233653	278.779795655618	1102.358913760386	782.398457740976	534.083263021978	1057.631753651412	662.947701735772	609.642801808290	1151.796324938556	620.219820172060	538.117608289775	1168.170931630782	508.870257448916	566.078619401683	1062.242512933176	750.291941927497	303.830057314049	967.131995120178	636.783997951725	245.423185000654	1050.556260360274	557.140922777114	305.616545440022	1048.654730093061	488.368812173150	316.064745529201	1019.922819237536	416.328047073660	309.272538655583	925.842244536876	303.909891418568	260.831644168614	975.221497041290	191.706691575272	332.010801187100	1092.100710172989	434.525750785416	573.867074655075	969.423316734959	397.741326850648	633.505681050918	956.164042958882	286.434631544472	589.130875231758	758.083696666223	230.318099343338	561.926514444286	921.144407185267	158.783266897556	600.982636203673	811.603691149785	162.764992779845	632.482930646088	979.554678505160	40.797641865739	622.646062198491	846.794093572328	39.195327377027	383.483989944698	914.974350549954	34.802915681726	297.752106217278	1000.125971168815	95.606899903048	319.914430574068	1126.939294775390	41.802811462611	282.963460126869	1069.467059223832	1120.809116450918	84.071761789190	1303.988905908346	1001.376398218057	83.379323762928	872.226246224811	1104.608836674677	680.071113050520	895.545689305688	843.102597139096	685.542223039103	
55	4.191285714286	793.950941834159	1008.937984148871	417.826998854155	987.479396760964	1441.955067876497	241.844815130937	1071.851270918082	1375.921252815420	414.814064469762	965.187018634603	1445.668493428605	577.835752920996	949.110351362130	1502.975491145396	397.609270091597	1015.954106480100	958.483825575866	553.379364069417	1020.632338340251	967.701077977528	278.137082176614	1102.305294194334	785.540763784531	533.051592743812	1059.731363032416	665.712713671839	609.189683622234	1153.998754443154	624.059182671073	537.243606830759	1172.351357334041	513.171035418551	565.564807091582	1059.734404713541	749.614124149437	303.984659425221	963.486960123544	637.029879919580	245.129070340947	1045.762159236771	556.604763995822	305.613172029858	1043.080686704797	488.107669943849	316.100830392941	1014.440411084456	416.411133532856	309.072620975021	920.251934707582	304.042322534168	260.553551076811	969.729539763408	191.846880390351	331.875102495122	1097.839247460728	437.404575228197	573.445246251360	976.007041343983	397.617623315806	632.914909296505	965.609755897864	285.925886870791	588.695403869160	768.915509308731	224.460615476773	561.567229022680	933.867607015670	157.501565727939	600.426380887554	824.399880442302	158.404589053401	632.023877347153	995.564535385761	41.387854344812	622.024713068921	841.326041412987	39.217247570206	383.429930479881	909.562158773799	34.794929587664	297.696490541590	994.730247507792	95.597858005424	319.822796647977	1121.532258204190	41.792728133505	282.936077905828	1073.948208591850	1123.052222206831	82.794259286222	1312.085170722615	1011.302151886131	82.542340654848	862.305208355762	1108.332317064713	677.753430091119	877.653430971365	846.375892554817	683.540424065842	
56	4.204642857143	793.113948233670	1009.890613777706	416.268536421514	989.053073759276	1442.565207348658	241.079325985899	1071.767775387610	1376.334883026366	414.713341353445	963.966063137536	1446.510119450068	576.742155477925	949.283691125673	1503.533084290526	396.666932190462	1014.427719077501	959.546485756316	552.837941912829	1020.406576468717	968.018429824022	277.636983840222	1101.955934010700	788.270508594978	532.261649530054	1061.291818788407	668.140610830886	608.907574540356	1155.490961624136	627.372874239536	536.502153476917	1175.682404144507	517.181778864171	565.210375102405	1057.040614238166	748.889286483007	304.377463797779	959.730290129517	637.296847138911	244.826695044637	1040.724038194767	556.064241416324	305.670452335570	1037.222756556957	487.870588981431	316.138050631090	1008.741682500936	416.527769690850	308.867083048245	914.522817890189	304.152394014732	260.273491288235	964.161006305182	192.007470660089	331.751097737343	1103.069802381466	439.870230373559	573.228007725436	982.465787497465	396.445973289725	632.647376246934	975.496292964201	284.397205784351	588.577412315078	780.621336597428	216.549405063349	561.652295527134	947.730101660346	155.189468226490	600.310407002853	838.415203946240	152.423541548919	632.039458452570	1013.327207002474	41.490888587910	621.923739667525	835.854710359995	39.222893707473	383.392731070510	904.144618074662	34.778038468575	297.650825575653	989.325456409162	95.592883107427	319.745593196506	1116.119307553717	41.799935045670	282.919876568055	1077.912414902602	1124.962283939851	81.759884476922	1319.152889239952	1020.411266597543	82.010455034507	852.993121002946	1112.215561599692	675.902606553228	861.484778075977	850.098753647979	681.577029083341	
57	4.218000000000	792.293146910163	1010.772237967601	414.813453527802	990.737247717942	1443.006339789234	240.468909057159	1071.787805187770	1376.596463699409	414.755736576129	962.890564004509	1447.238735687207	575.791611602917	949.539588209209	1503.964321264005	395.851039807329	1012.882004091432	960.412299274878	552.456679393075	1020.216900871460	968.222604538101	277.291882042056	1101.309247650991	790.512514290793	531.703426364359	1062.278612786433	670.148815020040	608.776656473598	1156.248583938955	630.066337735986	535.888275197852	1178.130463281585	520.814991587577	564.982591557592	1054.216390855012	748.109898499098	304.934841729651	955.901790418003	637.563041444395	244.500946422169	1035.505235326057	555.511210609319	305.758071694895	1031.162445679643	487.646327121241	316.153598036033	1002.891347185361	416.658934631438	308.648283151363	908.707084846523	304.231717314884	259.984438729801	958.541229848494	192.173879768525	331.633021082003	1107.760046299667	441.880504835627	573.193854883522	988.844796983112	394.265881915928	632.731258624935	985.814691161640	281.944525994352	588.795961477949	793.296444183528	206.815550232613	562.254617355569	962.678748824342	152.003977016516	600.645352128982	853.674943314827	145.076556485173	632.597483203625	1032.674768431916	41.229578345668	622.368912925166	830.386193997243	39.213039270955	383.369651931746	898.723778523826	34.751201442712	297.613375991982	983.913173917510	95.590187357589	319.682275516562	1110.703217620819	41.820679791079	282.912920678173	1081.393072025755	1126.491042721335	80.935726818697	1325.252492705758	1028.574471935604	81.749151861581	844.372966654505	1116.114046486103	674.452474370192	846.992222207356	854.005032805322	679.716579751994	
